<svg width="100%" height="100%" id="svg" viewBox="0 0 1440 700" xmlns="http://www.w3.org/2000/svg" class="transition duration-300 ease-in-out delay-150"><defs><linearGradient id="gradient" x1="93%" y1="75%" x2="7%" y2="25%"><stop offset="5%" stop-color="#0693e388"></stop><stop offset="95%" stop-color="#32ded488"></stop></linearGradient></defs><path d="M 0,700 C 0,700 0,233 0,233 C 100.44019138755979,234.33014354066984 200.88038277511959,235.6602870813397 292,212 C 383.1196172248804,188.3397129186603 464.91866028708125,139.68899521531102 550,162 C 635.0813397129187,184.31100478468898 723.4449760765551,277.5837320574163 817,314 C 910.5550239234449,350.4162679425837 1009.3014354066986,329.9760765550239 1114,307 C 1218.6985645933014,284.0239234449761 1329.3492822966507,258.5119617224881 1440,233 C 1440,233 1440,700 1440,700 Z" stroke="none" stroke-width="0" fill="url(#gradient)" class="transition-all duration-300 ease-in-out delay-150 path-0"></path><defs><linearGradient id="gradient" x1="93%" y1="75%" x2="7%" y2="25%"><stop offset="5%" stop-color="#0693e3ff"></stop><stop offset="95%" stop-color="#32ded4ff"></stop></linearGradient></defs><path d="M 0,700 C 0,700 0,466 0,466 C 95.39712918660285,447.73205741626793 190.7942583732057,429.46411483253587 286,431 C 381.2057416267943,432.53588516746413 476.22009569377985,453.8755980861244 568,458 C 659.7799043062201,462.1244019138756 748.3253588516748,449.0334928229665 833,434 C 917.6746411483252,418.9665071770335 998.4784688995214,401.99043062200957 1099,407 C 1199.5215311004786,412.00956937799043 1319.7607655502393,439.0047846889952 1440,466 C 1440,466 1440,700 1440,700 Z" stroke="none" stroke-width="0" fill="url(#gradient)" class="transition-all duration-300 ease-in-out delay-150 path-1"></path></svg>